<svg width="55" height="55" viewBox="0 0 55 55" fill="none" xmlns="http://www.w3.org/2000/svg">
<path d="M29.7916 50.4167H20.625C20.0172 50.4167 19.4343 50.1752 19.0045 49.7455C18.5748 49.3157 18.3333 48.7328 18.3333 48.125V33.9167H13.75C13.1422 33.9167 12.5593 33.6752 12.1295 33.2455C11.6998 32.8157 11.4583 32.2328 11.4583 31.625V23.375C11.4583 22.7672 11.6998 22.1843 12.1295 21.7546C12.5593 21.3248 13.1422 21.0834 13.75 21.0834H18.3333V17.1875C18.4939 13.6958 20.0306 10.4098 22.6072 8.04787C25.1838 5.68595 28.5909 4.44033 32.0833 4.58335H38.9583C39.5661 4.58335 40.149 4.82479 40.5788 5.25456C41.0085 5.68434 41.25 6.26723 41.25 6.87502V15.125C41.25 15.7328 41.0085 16.3157 40.5788 16.7455C40.149 17.1752 39.5661 17.4167 38.9583 17.4167H32.0833V21.0834H38.9583C39.3122 21.0807 39.6618 21.16 39.9799 21.315C40.298 21.4701 40.5758 21.6967 40.7916 21.9771C41.0051 22.2617 41.1494 22.5921 41.213 22.9422C41.2767 23.2922 41.2579 23.6522 41.1583 23.9938L38.8666 32.2438C38.728 32.7395 38.4266 33.1741 38.0108 33.4775C37.5951 33.781 37.0893 33.9357 36.575 33.9167H32.0833V48.125C32.0833 48.7328 31.8419 49.3157 31.4121 49.7455C30.9823 50.1752 30.3994 50.4167 29.7916 50.4167ZM22.9166 45.8334H27.5V31.625C27.5 31.0172 27.7414 30.4343 28.1712 30.0046C28.601 29.5748 29.1839 29.3334 29.7916 29.3334H34.925L35.9333 25.6667H29.7916C29.1839 25.6667 28.601 25.4252 28.1712 24.9955C27.7414 24.5657 27.5 23.9828 27.5 23.375V17.1875C27.5588 16.0121 28.0676 14.9044 28.9208 14.0938C29.7741 13.2832 30.9064 12.8319 32.0833 12.8334H36.6666V9.16668H32.0833C29.8073 9.02802 27.5683 9.79238 25.8522 11.294C24.1361 12.7955 23.0813 14.9132 22.9166 17.1875V23.375C22.9166 23.9828 22.6752 24.5657 22.2454 24.9955C21.8157 25.4252 21.2328 25.6667 20.625 25.6667H16.0416V29.3334H20.625C21.2328 29.3334 21.8157 29.5748 22.2454 30.0046C22.6752 30.4343 22.9166 31.0172 22.9166 31.625V45.8334Z" fill="white"/>
</svg>
