<svg width="55" height="55" viewBox="0 0 55 55" fill="none" xmlns="http://www.w3.org/2000/svg">
<path fill-rule="evenodd" clip-rule="evenodd" d="M17.1073 2.443C19.7954 2.31925 20.6525 2.29175 27.5 2.29175C34.3475 2.29175 35.2046 2.32154 37.8904 2.443C40.5762 2.56446 42.4096 2.993 44.0137 3.61404C45.6935 4.24883 47.2175 5.24112 48.4779 6.52446C49.7612 7.78258 50.7512 9.30425 51.3837 10.9863C52.0071 12.5905 52.4333 14.4238 52.5571 17.1051C52.6808 19.7978 52.7083 20.6549 52.7083 27.5001C52.7083 34.3476 52.6785 35.2047 52.5571 37.8928C52.4356 40.574 52.0071 42.4074 51.3837 44.0115C50.7512 45.6938 49.7596 47.218 48.4779 48.478C47.2175 49.7613 45.6935 50.7513 44.0137 51.3838C42.4096 52.0072 40.5762 52.4334 37.895 52.5572C35.2046 52.6809 34.3475 52.7084 27.5 52.7084C20.6525 52.7084 19.7954 52.6786 17.1073 52.5572C14.426 52.4357 12.5927 52.0072 10.9885 51.3838C9.30627 50.7512 7.78208 49.7596 6.52207 48.478C5.23961 47.2191 4.24717 45.6956 3.61395 44.0138C2.99291 42.4097 2.56666 40.5763 2.44291 37.8951C2.31916 35.2024 2.29166 34.3453 2.29166 27.5001C2.29166 20.6526 2.32145 19.7955 2.44291 17.1097C2.56436 14.4238 2.99291 12.5905 3.61395 10.9863C4.2481 9.30443 5.2413 7.78101 6.52436 6.52216C7.78258 5.23998 9.30524 4.24756 10.9862 3.61404C12.5904 2.993 14.4237 2.56675 17.105 2.443H17.1073ZM37.6864 6.9805C35.0281 6.85904 34.2306 6.83383 27.5 6.83383C20.7694 6.83383 19.9719 6.85904 17.3135 6.9805C14.8546 7.09279 13.5208 7.503 12.6317 7.84904C11.456 8.30737 10.615 8.8505 9.7327 9.73279C8.89634 10.5464 8.25269 11.537 7.84895 12.6317C7.50291 13.5209 7.0927 14.8547 6.98041 17.3136C6.85895 19.972 6.83374 20.7695 6.83374 27.5001C6.83374 34.2307 6.85895 35.0282 6.98041 37.6865C7.0927 40.1455 7.50291 41.4792 7.84895 42.3684C8.25228 43.4615 8.89624 44.4538 9.7327 45.2674C10.5462 46.1038 11.5385 46.7478 12.6317 47.1511C13.5208 47.4972 14.8546 47.9074 17.3135 48.0197C19.9719 48.1411 20.7671 48.1663 27.5 48.1663C34.2329 48.1663 35.0281 48.1411 37.6864 48.0197C40.1454 47.9074 41.4792 47.4972 42.3683 47.1511C43.5439 46.6928 44.385 46.1497 45.2673 45.2674C46.1037 44.4538 46.7477 43.4615 47.151 42.3684C47.4971 41.4792 47.9073 40.1455 48.0196 37.6865C48.141 35.0282 48.1662 34.2307 48.1662 27.5001C48.1662 20.7695 48.141 19.972 48.0196 17.3136C47.9073 14.8547 47.4971 13.5209 47.151 12.6317C46.6927 11.4561 46.1496 10.6151 45.2673 9.73279C44.4536 8.89649 43.4631 8.25286 42.3683 7.84904C41.4792 7.503 40.1454 7.09279 37.6864 6.9805ZM24.2802 35.2711C26.0784 36.0196 28.0806 36.1207 29.945 35.5569C31.8094 34.9932 33.4203 33.7997 34.5024 32.1802C35.5846 30.5608 36.0709 28.6158 35.8784 26.6776C35.6859 24.7394 34.8265 22.9281 33.4469 21.5532C32.5674 20.6743 31.504 20.0013 30.3333 19.5827C29.1625 19.1641 27.9135 19.0103 26.6761 19.1323C25.4388 19.2544 24.2439 19.6492 23.1775 20.2885C22.111 20.9278 21.1996 21.7955 20.5088 22.8293C19.818 23.8631 19.365 25.0372 19.1824 26.2671C18.9998 27.4969 19.0922 28.752 19.4529 29.9419C19.8136 31.1318 20.4336 32.2269 21.2683 33.1484C22.103 34.0699 23.1317 34.7949 24.2802 35.2711ZM18.3379 18.338C19.5411 17.1348 20.9695 16.1804 22.5415 15.5292C24.1135 14.8781 25.7984 14.5429 27.5 14.5429C29.2015 14.5429 30.8864 14.8781 32.4585 15.5292C34.0305 16.1804 35.4589 17.1348 36.6621 18.338C37.8653 19.5412 38.8197 20.9696 39.4708 22.5416C40.122 24.1136 40.4571 25.7985 40.4571 27.5001C40.4571 29.2016 40.122 30.8865 39.4708 32.4586C38.8197 34.0306 37.8653 35.459 36.6621 36.6622C34.2321 39.0921 30.9364 40.4572 27.5 40.4572C24.0635 40.4572 20.7678 39.0921 18.3379 36.6622C15.908 34.2322 14.5428 30.9365 14.5428 27.5001C14.5428 24.0636 15.908 20.7679 18.3379 18.338ZM43.3308 16.4726C43.629 16.1913 43.8677 15.8531 44.0328 15.4779C44.1979 15.1028 44.286 14.6983 44.292 14.2885C44.298 13.8786 44.2216 13.4718 44.0676 13.0919C43.9135 12.7121 43.6847 12.3671 43.3949 12.0773C43.1051 11.7874 42.76 11.5587 42.3802 11.4046C42.0004 11.2505 41.5935 11.1742 41.1837 11.1802C40.7738 11.1861 40.3694 11.2743 39.9942 11.4394C39.6191 11.6045 39.2808 11.8432 38.9996 12.1413C38.4526 12.7212 38.1531 13.4914 38.1647 14.2885C38.1763 15.0855 38.4981 15.8467 39.0618 16.4103C39.6255 16.974 40.3866 17.2958 41.1837 17.3074C41.9808 17.3191 42.751 17.0196 43.3308 16.4726Z" fill="white"/>
</svg>
