<svg width="71" height="48" viewBox="0 0 71 48" fill="none" xmlns="http://www.w3.org/2000/svg">
<path d="M0.208008 6.73214C0.208008 4.37946 1.5485 3.11086 4.22949 2.92634L14.5605 2.99554C15.2539 2.99554 15.7161 3.34152 15.9473 4.03348C17.0104 7.4933 18.2007 10.4803 19.5181 12.9944C20.8354 15.5086 22.5573 18.4033 24.6836 21.6786C24.8685 22.0937 25.1689 22.3013 25.585 22.3013C25.9085 22.3013 26.1628 22.1399 26.3477 21.817L26.5557 21.0558L26.625 9.08482C26.625 8.25446 26.4285 7.70089 26.0356 7.42411C25.6427 7.14732 24.9147 6.93973 23.8516 6.80134C23.0195 6.66295 22.6035 6.15551 22.6035 5.27902C22.6035 5.09449 22.6266 4.9561 22.6729 4.86384C23.6436 1.86533 26.417 0.366071 30.9932 0.366071L34.876 0.296875C36.6325 0.296875 38.0885 0.735119 39.2441 1.61161C40.3997 2.4881 40.9775 3.87202 40.9775 5.76339V21.471C41.3011 21.7016 41.6016 21.817 41.8789 21.817C42.5723 21.817 43.1732 21.4018 43.6816 20.5714C48.7663 13.4673 51.5166 8.71577 51.9326 6.31696C51.9326 6.27083 51.9788 6.15551 52.0713 5.97098C52.3949 5.27902 52.9264 4.67932 53.666 4.17187C54.4056 3.66443 55.0527 3.31845 55.6074 3.13393C55.7923 3.04167 56.0003 2.99554 56.2314 2.99554H66.9785L67.6719 3.06473C68.5964 3.06473 69.3128 3.50298 69.8213 4.37946C70.0062 4.65625 70.1333 4.9561 70.2026 5.27902C70.272 5.60193 70.3182 5.92485 70.3413 6.24777C70.3644 6.57068 70.376 6.75521 70.376 6.80134V7.28571C70.0524 9.17708 69.2319 11.1953 67.9146 13.3404C66.5972 15.4855 64.9215 17.8036 62.8877 20.2946C60.8538 22.7857 59.5827 24.4234 59.0742 25.2076C58.6582 25.7612 58.4502 26.2686 58.4502 26.7299C58.4502 27.099 58.6351 27.5141 59.0049 27.9754L69.1279 40.7076C69.6826 41.4457 69.96 42.253 69.96 43.1295C69.96 44.1905 69.5439 45.067 68.7119 45.7589C67.8799 46.4509 66.8861 46.843 65.7305 46.9353L64.5518 47.0045H54.0127C53.9665 47.0045 53.874 47.016 53.7354 47.0391C53.5967 47.0621 53.5042 47.0737 53.458 47.0737C52.4411 47.0737 51.4935 46.6354 50.6152 45.7589C50.2917 45.3899 48.1191 42.6682 44.0977 37.5938C43.8665 37.2708 43.543 36.971 43.127 36.6942C42.9421 37.4323 42.6994 38.4933 42.3989 39.8772C42.0985 41.2612 41.8789 42.253 41.7402 42.8527L41.5322 44.029C41.07 45.6436 40.0993 46.6124 38.6201 46.9353L37.6494 47.0045H30.8545C27.0179 47.0045 23.1929 45.2515 19.3794 41.7455C15.5659 38.2396 12.1338 33.7072 9.08301 28.1484C6.03223 22.5897 3.18945 16.1198 0.554688 8.73884C0.323568 8.13914 0.208008 7.47024 0.208008 6.73214ZM41.8789 24.654C40.9082 24.654 40.0299 24.3888 39.2441 23.8583C38.4583 23.3278 38.0654 22.6012 38.0654 21.6786V5.76339C38.0654 4.84077 37.8343 4.18341 37.3721 3.79129C36.9098 3.39918 36.1009 3.20312 34.9453 3.20312L30.9932 3.34152C29.0055 3.34152 27.5033 3.6875 26.4863 4.37946C28.5202 5.34821 29.5371 6.91667 29.5371 9.08482V21.2634C29.4447 22.4167 28.9824 23.3739 28.1504 24.135C27.3184 24.8962 26.3939 25.2768 25.377 25.2768C23.9902 25.2768 22.9271 24.6079 22.1875 23.2701C18.582 17.8266 15.901 12.66 14.1445 7.77009L13.5205 5.97098L4.29883 5.90179C3.69792 5.90179 3.36279 5.93638 3.29346 6.00558C3.22412 6.07478 3.18945 6.27083 3.18945 6.59375C3.18945 7.00893 3.23568 7.44717 3.32812 7.90848L4.78418 11.7835C8.66699 21.7939 12.8849 29.6823 17.438 35.4487C21.991 41.215 26.4632 44.0982 30.8545 44.0982H37.7881C38.0654 44.0982 38.2734 44.0175 38.4121 43.856C38.5508 43.6946 38.6663 43.3832 38.7588 42.9219L38.8975 42.2299L40.2148 36.1406C40.5846 35.3103 40.9082 34.7567 41.1855 34.4799C41.694 33.9725 42.2949 33.7188 42.9883 33.7188C44.0977 33.7188 45.2301 34.3876 46.3857 35.7254L52.2793 43.1987C52.6491 43.7984 53.042 44.0982 53.458 44.0982H64.8984C66.2852 44.0982 66.9785 43.7522 66.9785 43.0603C66.9785 42.8296 66.9092 42.599 66.7705 42.3683L56.7168 29.8437C55.931 28.875 55.5381 27.8371 55.5381 26.7299C55.5381 25.6228 55.9079 24.5618 56.6475 23.5469C57.2484 22.6243 58.4155 21.0904 60.1489 18.9453C61.8823 16.8002 63.3962 14.7935 64.6904 12.9252C65.9847 11.0569 66.8398 9.36161 67.2559 7.83929L67.4639 6.93973C67.4176 6.84747 67.3945 6.69754 67.3945 6.48995C67.3945 6.28237 67.3714 6.10937 67.3252 5.97098H56.4395C55.7461 6.24777 55.1914 6.66295 54.7754 7.21652L54.3594 8.53125C53.2038 11.7143 50.1761 16.6272 45.2764 23.2701C44.3057 24.1927 43.1732 24.654 41.8789 24.654Z" fill="white"/>
</svg>
