<svg width="89" height="89" viewBox="0 0 89 89" fill="none" xmlns="http://www.w3.org/2000/svg">
<path d="M44.5 5.5625C22.9975 5.5625 5.5625 22.9975 5.5625 44.5C5.5625 66.0025 22.9975 83.4375 44.5 83.4375C66.0025 83.4375 83.4375 66.0025 83.4375 44.5C83.4375 22.9975 66.0025 5.5625 44.5 5.5625ZM44.5 76.832C26.6479 76.832 12.168 62.3521 12.168 44.5C12.168 26.6479 26.6479 12.168 44.5 12.168C62.3521 12.168 76.832 26.6479 76.832 44.5C76.832 62.3521 62.3521 76.832 44.5 76.832Z" fill="white"/>
<path d="M62.526 43.3788L36.7907 24.6923C36.5843 24.541 36.34 24.45 36.0849 24.4294C35.8298 24.4088 35.574 24.4595 35.346 24.5757C35.118 24.692 34.9268 24.8693 34.7936 25.0878C34.6604 25.3063 34.5906 25.5576 34.5918 25.8135V63.1866C34.5918 64.3251 35.8781 64.9683 36.7907 64.3078L62.526 45.6212C62.7037 45.4932 62.8484 45.3248 62.9482 45.1298C63.048 44.9349 63.1 44.719 63.1 44.5C63.1 44.281 63.048 44.0652 62.9482 43.8702C62.8484 43.6753 62.7037 43.5069 62.526 43.3788ZM40.1369 55.0253V33.9747L54.6255 44.5L40.1369 55.0253Z" fill="white"/>
</svg>
