<svg width="66" height="48" viewBox="0 0 66 48" fill="none" xmlns="http://www.w3.org/2000/svg">
<path d="M65.375 23.7975C65.375 23.6385 65.375 23.4579 65.3678 23.2483C65.3605 22.6629 65.3461 22.0053 65.3316 21.3043C65.2738 19.2881 65.1727 17.2791 65.0137 15.3858C64.7969 12.777 64.4789 10.6018 64.0453 8.9686C63.5877 7.26421 62.6908 5.70977 61.4443 4.46065C60.1977 3.21152 58.6451 2.31147 56.9416 1.85044C54.8965 1.30122 50.893 0.961572 45.2562 0.752002C42.5752 0.65083 39.7062 0.585791 36.8373 0.549658C35.8328 0.535205 34.9006 0.527979 34.0623 0.520752H31.9377C31.0994 0.527979 30.1672 0.535205 29.1627 0.549658C26.2937 0.585791 23.4248 0.65083 20.7437 0.752002C15.107 0.968799 11.0963 1.30845 9.0584 1.85044C7.35438 2.31033 5.80117 3.21001 4.5544 4.45931C3.30764 5.70861 2.41112 7.26365 1.95469 8.9686C1.51387 10.6018 1.20312 12.777 0.986328 15.3858C0.827344 17.2791 0.726172 19.2881 0.668359 21.3043C0.64668 22.0053 0.639453 22.6629 0.632226 23.2483C0.632226 23.4579 0.625 23.6385 0.625 23.7975V24.2022C0.625 24.3612 0.625 24.5418 0.632226 24.7514C0.639453 25.3368 0.653906 25.9944 0.668359 26.6954C0.726172 28.7116 0.827344 30.7206 0.986328 32.6139C1.20312 35.2227 1.52109 37.3979 1.95469 39.0311C2.87969 42.4926 5.59687 45.2243 9.0584 46.1493C11.0963 46.6985 15.107 47.0381 20.7437 47.2477C23.4248 47.3489 26.2937 47.4139 29.1627 47.45C30.1672 47.4645 31.0994 47.4717 31.9377 47.479H34.0623C34.9006 47.4717 35.8328 47.4645 36.8373 47.45C39.7062 47.4139 42.5752 47.3489 45.2562 47.2477C50.893 47.0309 54.9037 46.6913 56.9416 46.1493C60.4031 45.2243 63.1203 42.4999 64.0453 39.0311C64.4861 37.3979 64.7969 35.2227 65.0137 32.6139C65.1727 30.7206 65.2738 28.7116 65.3316 26.6954C65.3533 25.9944 65.3605 25.3368 65.3678 24.7514C65.3678 24.5418 65.375 24.3612 65.375 24.2022V23.7975ZM60.1719 24.1733C60.1719 24.325 60.1719 24.4913 60.1646 24.6864C60.1574 25.25 60.143 25.8715 60.1285 26.5436C60.0779 28.4659 59.9768 30.3881 59.825 32.1731C59.6299 34.5 59.3553 36.4079 59.0156 37.687C58.5676 39.3563 57.2523 40.6788 55.5902 41.1196C54.0727 41.5243 50.2498 41.8495 45.0539 42.0446C42.4234 42.1457 39.5906 42.2108 36.765 42.2469C35.775 42.2614 34.8572 42.2686 34.0334 42.2686H31.9666L29.235 42.2469C26.4094 42.2108 23.5838 42.1457 20.9461 42.0446C15.7502 41.8422 11.9201 41.5243 10.4098 41.1196C8.74766 40.6715 7.43242 39.3563 6.98438 37.687C6.64473 36.4079 6.37012 34.5 6.175 32.1731C6.02324 30.3881 5.9293 28.4659 5.87148 26.5436C5.84981 25.8715 5.84258 25.2428 5.83535 24.6864C5.83535 24.4913 5.82812 24.3178 5.82812 24.1733V23.8264C5.82812 23.6747 5.82813 23.5084 5.83535 23.3133C5.84258 22.7497 5.85703 22.1282 5.87148 21.4561C5.92207 19.5338 6.02324 17.6116 6.175 15.8266C6.37012 13.4997 6.64473 11.5918 6.98438 10.3127C7.43242 8.64341 8.74766 7.32095 10.4098 6.88013C11.9273 6.47544 15.7502 6.15024 20.9461 5.95512C23.5766 5.85395 26.4094 5.78892 29.235 5.75278C30.225 5.73833 31.1428 5.7311 31.9666 5.7311H34.0334L36.765 5.75278C39.5906 5.78892 42.4162 5.85395 45.0539 5.95512C50.2498 6.15747 54.0799 6.47544 55.5902 6.88013C57.2523 7.32817 58.5676 8.64341 59.0156 10.3127C59.3553 11.5918 59.6299 13.4997 59.825 15.8266C59.9768 17.6116 60.0707 19.5338 60.1285 21.4561C60.1502 22.1282 60.1574 22.7569 60.1646 23.3133C60.1646 23.5084 60.1719 23.6819 60.1719 23.8264V24.1733ZM26.5684 33.6834L43.334 23.9276L26.5684 14.3163V33.6834Z" fill="white"/>
</svg>
